HIERARCHY
ROOT Hips
{
  OFFSET 35.8832 97.8744 -343.619
  CHANNELS 6 Xposition Yposition Zposition Zrotation Xrotation Yrotation
  JOINT ToSpine
  {
    OFFSET -0.0105055 1.38907 -7.13956
    CHANNELS 3 Zrotation Xrotation Yrotation
    JOINT Spine
    {
      OFFSET 0.0105055 10 1
      CHANNELS 3 Zrotation Xrotation Yrotation
      JOINT Spine1
      {
        OFFSET 0 12 1.60637
        CHANNELS 3 Zrotation Xrotation Yrotation
        JOINT Neck
        {
          OFFSET 0 27 2.26658
          CHANNELS 3 Zrotation Xrotation Yrotation
          JOINT Head
          {
            OFFSET 0 9 2.12705
            CHANNELS 3 Zrotation Xrotation Yrotation
            End Site
            {
              OFFSET 0 11 2
            }
          }
        }
        JOINT LeftShoulder
        {
          OFFSET 8 19.6109 2.86452
          CHANNELS 3 Zrotation Xrotation Yrotation
          JOINT LeftArm
          {
            OFFSET 12 1 0.681055
            CHANNELS 3 Zrotation Xrotation Yrotation
            JOINT LeftForeArm
            {
              OFFSET 19 0 -1.52608
              CHANNELS 3 Zrotation Xrotation Yrotation
              JOINT LeftHand
              {
                OFFSET 23 0 0
                CHANNELS 3 Zrotation Xrotation Yrotation
                End Site
                {
                  OFFSET 10 0 0
                }
              }
            }
          }
        }
        JOINT RightShoulder
        {
          OFFSET -8 19.6109 2.86452
          CHANNELS 3 Zrotation Xrotation Yrotation
          JOINT RightArm
          {
            OFFSET -12 1 0.681055
            CHANNELS 3 Zrotation Xrotation Yrotation
            JOINT RightForeArm
            {
              OFFSET -19 0 -1.52608
              CHANNELS 3 Zrotation Xrotation Yrotation
              JOINT RightHand
              {
                OFFSET -23 0 0
                CHANNELS 3 Zrotation Xrotation Yrotation
                End Site
                {
                  OFFSET -10 0 0
                }
              }
            }
          }
        }
      }
    }
  }
  JOINT LeftUpLeg
  {
    OFFSET 9 -7.17245 0
    CHANNELS 3 Zrotation Xrotation Yrotation
    JOINT LeftLeg
    {
      OFFSET 0 -44.1113 0
      CHANNELS 3 Zrotation Xrotation Yrotation
      JOINT LeftFoot
      {
        OFFSET 0 -36.1829 0
        CHANNELS 3 Zrotation Xrotation Yrotation
        JOINT LeftToeBase
        {
          OFFSET 0 -4.84184 13
          CHANNELS 3 Zrotation Xrotation Yrotation
          End Site
          {
            OFFSET 0 1 6
          }
        }
      }
    }
  }
  JOINT RightUpLeg
  {
    OFFSET -9 -7.17245 0
    CHANNELS 3 Zrotation Xrotation Yrotation
    JOINT RightLeg
    {
      OFFSET 0 -44.0551 0
      CHANNELS 3 Zrotation Xrotation Yrotation
      JOINT RightFoot
      {
        OFFSET 0 -36.1469 0
        CHANNELS 3 Zrotation Xrotation Yrotation
        JOINT RightToeBase
        {
          OFFSET 0 -4.92256 13
          CHANNELS 3 Zrotation Xrotation Yrotation
          End Site
          {
            OFFSET 0 1 6
          }
        }
      }
    }
  }
}
MOTION
Frames:	7
Frame Time:	0.0333333
35.8427 97.9028 -343.62 8.4463 -15.2467 14.2769 0 0 0 -17.3551 -0.801675 -1.76064 10.6518 20.9789 -7.20123 8.53267 2.99877 -2.362 -5.41893 -0.0490004 1.61945 -29.1144 3.37722 -6.07458 -45.973 22.6559 -10.5332 -3.80626 -5.82107 -5.36339 -10.526 0.404654 -4.39032 25.6141 5.26096 12.9419 54.3905 12.29 0.773639 0.838678 1.34537 15.0019 2.3484 0.0555864 2.68706 6.51029 19.2701 16.8966 -8.80731 13.3942 -33.8466 9.93206 -11.6214 1.0133 -0.135491 -1.69844 1.08663 -0.184943 21.4981 -7.56981 -1.94202 14.2688 -14.2479 -8.36311 -16.4393 -1.21025 3.20718 -11.7216 -3.21881 
35.6651 98.0217 -343.626 8.09557 -14.9058 13.8146 0 0 0 -16.976 -1.12571 -1.70733 10.7342 20.7516 -6.97841 8.10385 3.33256 -2.10741 -5.1129 -0.390441 1.67273 -29.3505 3.38915 -6.04483 -45.8409 22.9799 -10.583 -3.8691 -5.77851 -5.4069 -11.1369 0.413678 -4.24057 25.1966 5.12002 12.7095 54.595 12.0669 0.911602 1.05705 0.990646 14.499 2.63676 0.0717879 3.16914 6.40728 18.992 16.475 -8.39988 12.7835 -32.9409 9.53068 -11.4605 0.958534 -0.170826 -2.3511 1.47291 -0.00839637 21.2517 -7.68119 -1.82698 13.6335 -13.5574 -8.54257 -16.1537 -1.21502 3.13627 -11.3997 -3.51528 
35.4515 98.1913 -343.657 8.00829 -14.5693 13.4127 0 0 0 -16.8876 -1.32753 -1.76185 10.8882 20.5726 -6.81574 8.00258 3.74682 -2.0807 -4.58804 -0.864936 1.55764 -29.721 3.42093 -6.04327 -45.4465 22.9072 -10.4512 -3.92251 -6.85772 -5.68317 -11.1454 0.363669 -3.72589 25.0105 5.02748 12.5109 54.6476 12.8145 1.20744 1.66016 -0.21566 13.9538 1.68383 0.0586335 3.95723 5.92449 18.9424 15.7562 -7.82829 11.6402 -31.7194 8.5116 -11.3742 0.849235 -0.144798 -1.8941 1.19659 -0.163905 21.2301 -8.15214 -1.47101 12.5497 -12.7455 -9.64593 -15.4371 -1.30678 3.23689 -11.8113 -3.5864 
35.2421 98.4387 -343.756 7.6811 -13.4974 12.7606 0 0 0 -17.0006 -2.37527 -2.16998 11.7399 20.6297 -7.0972 6.70466 4.22243 -1.37225 -4.20655 -1.69298 1.74956 -31.2668 3.35278 -5.46454 -44.0778 23.2359 -10.2943 -4.02261 -7.56939 -6.23229 -11.1797 0.36443 -3.72216 23.912 4.89165 12.6167 54.8183 13.5421 2.04525 2.11024 -0.665502 13.1906 1.38688 0.0497985 4.09229 5.25967 18.1288 14.7753 -7.09753 10.2099 -29.9271 7.2682 -11.1645 0.711149 -0.077077 -1.76109 0.854315 -0.370823 20.3697 -8.59901 -1.02093 11.2275 -11.7554 -11.4537 -14.0442 -1.41818 3.55405 -13.1331 -3.64697 
34.9608 98.6542 -343.877 7.24796 -12.7948 12.0912 0 0 0 -15.7468 -3.22599 -2.2159 10.4927 20.8177 -6.44683 6.68582 4.76345 -0.95635 -3.66168 -2.69948 2.03691 -30.8091 3.37927 -5.64939 -44.1975 23.0578 -10.235 -3.80064 -6.97092 -6.35815 -11.004 0.332742 -3.45633 24.0473 4.81225 12.2933 54.7078 13.4682 3.00373 2.1172 0.450136 12.1178 1.85026 0.0661576 4.07437 4.93047 17.5885 13.9791 -6.37405 9.0102 -28.4797 6.64712 -10.6277 0.619574 0.0377518 -2.30476 0.508642 -0.126148 19.7153 -8.66081 -0.976949 10.2689 -11.0482 -12.0055 -13.2625 -1.39888 3.54479 -13.0938 -3.61631 
34.674 98.9527 -344.022 6.57461 -11.7267 10.9305 0 0 0 -14.873 -4.03511 -2.37551 10.3416 20.0811 -6.12194 4.5202 4.83305 -0.24737 -1.36774 -1.50132 1.57279 -31.6704 3.35635 -5.38081 -43.55 23.2972 -9.53073 -3.86735 -7.7068 -6.68119 -11.1626 0.316061 -3.23428 23.4774 4.83359 12.6476 54.8025 14.3026 3.24353 2.32783 0.770291 11.5191 1.6336 0.050168 3.51434 4.67478 16.9512 13.2105 -5.80688 7.23651 -26.5972 5.43499 -10.034 0.477054 -0.021874 -2.02059 0.687983 -0.0198342 19.0448 -9.0754 -0.405411 8.21694 -9.41637 -13.7574 -11.4202 -1.38032 3.80214 -14.1652 -4.01288 
34.3582 99.1093 -344.188 6.40436 -11.2765 10.3836 0 0 0 -13.4916 -4.18269 -2.21008 8.65395 19.8864 -5.23626 5.84688 4.84097 -0.951757 -2.53488 -1.60384 1.56181 -30.8545 3.34933 -5.5565 -43.488 22.6327 -9.94687 -4.05401 -8.45134 -5.84816 -10.9316 0.502934 -5.24701 24.1885 4.83275 12.2897 54.0769 14.8695 3.60747 2.77436 -0.156249 11.153 1.98698 0.0646779 3.72919 4.16839 16.7116 12.3004 -4.87586 6.03713 -24.9846 4.45446 -9.75506 0.380543 -0.108564 -1.94981 1.05052 -0.198201 18.849 -9.6642 0.329099 7.0287 -8.24349 -15.4469 -10.279 -1.40015 4.01506 -15.0648 -4.14465 
